# xmcd
#
# Track frame offsets:
#	150
#	19230
#	43680
#	77153
#	104517
#	123713
#	139249
#	156616
#	180539
#	201769
#	224442
#	243570
#	273591
#
# Disc length: 4114 seconds
#
# Revision: 1
# Processed by: cddbd v1.5.2PL0 Copyright (c) Steve Scherf et al.
# Submitted via: EasyCDDAExtractor 12.0.2.1
#
DISCID=cb10100d
DTITLE=U2 - NO LINE ON THE HORIZON
DYEAR=2009
DGENRE=Pop
TTITLE0=NO LINE ON THE HORIZON
TTITLE1=MAGNIFICENT
TTITLE2=MOMENT OF SURRENDER
TTITLE3=UNKNOWN CALLER
TTITLE4=I'LL GO CRAZY IF I DON'T GO CRAZY TONIGHT
TTITLE5=GET ON YOUR BOOTS
TTITLE6=STAND UP COMEDY
TTITLE7=FEZ - BEING BORN
TTITLE8=WHITE AS SNOW
TTITLE9=BREATHE
TTITLE10=CEDARS OF LEBANON
TTITLE11=NO LINE ON THE HORIZON 2 
TTITLE12=DATA TRACK
EXTD=
EXTT0=
EXTT1=
EXTT2=
EXTT3=
EXTT4=
EXTT5=
EXTT6=
EXTT7=
EXTT8=
EXTT9=
EXTT10=
EXTT11=
EXTT12=
PLAYORDER=
